<svg width="67" height="20" viewBox="0 0 67 20" fill="none" xmlns="http://www.w3.org/2000/svg">
<rect x="0.400391" y="0.200195" width="66.4" height="19.6" rx="2.8" fill="#E5E5E6" fill-opacity="0.5"/>
<path d="M10.4281 10.6369L6.13662 12.718V11.7291L9.30352 10.2879L9.2712 10.3428V10.2038L9.30352 10.262L6.13662 8.81751V7.83189L10.4281 9.913V10.6369ZM16.6609 13.5905C16.2171 13.5905 15.8207 13.514 15.4717 13.361C15.1249 13.2081 14.8502 12.9959 14.6477 12.7244C14.4473 12.4508 14.3396 12.1341 14.3245 11.7744H15.3392C15.3521 11.9704 15.4179 12.1406 15.5363 12.2849C15.657 12.4271 15.8143 12.537 16.0081 12.6146C16.202 12.6921 16.4175 12.7309 16.6545 12.7309C16.9151 12.7309 17.1456 12.6857 17.346 12.5952C17.5485 12.5047 17.7069 12.3787 17.821 12.2171C17.9352 12.0533 17.9923 11.8648 17.9923 11.6516C17.9923 11.4297 17.9352 11.2347 17.821 11.0667C17.709 10.8965 17.5442 10.7629 17.3266 10.6659C17.1112 10.569 16.8505 10.5205 16.5446 10.5205H15.9855V9.70618H16.5446C16.7902 9.70618 17.0056 9.66201 17.1909 9.57369C17.3783 9.48536 17.5248 9.36256 17.6304 9.20529C17.7359 9.04587 17.7887 8.85952 17.7887 8.64624C17.7887 8.44157 17.7424 8.26384 17.6498 8.11303C17.5593 7.96007 17.43 7.84051 17.262 7.75433C17.0961 7.66816 16.9 7.62507 16.6738 7.62507C16.4584 7.62507 16.257 7.66493 16.0695 7.74464C15.8843 7.82219 15.7335 7.93422 15.6171 8.08072C15.5008 8.22506 15.4383 8.39848 15.4297 8.60099H14.4635C14.4742 8.24337 14.5798 7.92884 14.7802 7.65739C14.9827 7.38594 15.2498 7.17373 15.5816 7.02077C15.9134 6.86782 16.2817 6.79134 16.6868 6.79134C17.1112 6.79134 17.4774 6.87428 17.7855 7.04016C18.0957 7.20389 18.3348 7.42256 18.5029 7.69616C18.6731 7.96977 18.7571 8.26922 18.7549 8.59453C18.7571 8.96508 18.6537 9.27962 18.4447 9.53814C18.2379 9.79666 17.9621 9.97009 17.6174 10.0584V10.1101C18.0569 10.1769 18.3973 10.3514 18.6386 10.6336C18.8821 10.9159 19.0027 11.2659 19.0005 11.6839C19.0027 12.048 18.9014 12.3743 18.6968 12.663C18.4943 12.9517 18.2174 13.179 17.8663 13.3449C17.5151 13.5086 17.1133 13.5905 16.6609 13.5905ZM22.5261 13.6099C22.0156 13.6077 21.5793 13.4731 21.2174 13.2059C20.8554 12.9388 20.5786 12.5499 20.3869 12.0393C20.1951 11.5288 20.0993 10.9137 20.0993 10.1941C20.0993 9.47674 20.1951 8.86383 20.3869 8.3554C20.5808 7.84697 20.8587 7.45919 21.2206 7.19205C21.5847 6.92491 22.0199 6.79134 22.5261 6.79134C23.0324 6.79134 23.4665 6.92598 23.8285 7.19528C24.1904 7.46242 24.4672 7.8502 24.659 8.35863C24.8529 8.8649 24.9498 9.47674 24.9498 10.1941C24.9498 10.9159 24.8539 11.532 24.6622 12.0426C24.4705 12.551 24.1936 12.9399 23.8317 13.2092C23.4698 13.4763 23.0346 13.6099 22.5261 13.6099ZM22.5261 12.7471C22.9743 12.7471 23.3243 12.5284 23.5764 12.0911C23.8306 11.6537 23.9577 11.0214 23.9577 10.1941C23.9577 9.64478 23.8995 9.18052 23.7832 8.80135C23.669 8.42003 23.5042 8.13134 23.2888 7.9353C23.0755 7.7371 22.8213 7.638 22.5261 7.638C22.0802 7.638 21.7301 7.85774 21.4759 8.29723C21.2217 8.73672 21.0935 9.36902 21.0913 10.1941C21.0913 10.7457 21.1484 11.2121 21.2626 11.5934C21.379 11.9726 21.5438 12.2602 21.757 12.4562C21.9703 12.6501 22.2267 12.7471 22.5261 12.7471ZM30.3755 13.5969C29.9748 13.5969 29.6172 13.4946 29.3027 13.29C28.9903 13.0831 28.7447 12.7891 28.5659 12.4077C28.3892 12.0243 28.3009 11.5643 28.3009 11.0279C28.3009 10.4914 28.3903 10.0326 28.5691 9.65124C28.7501 9.26992 28.9978 8.97801 29.3124 8.7755C29.6269 8.57299 29.9834 8.47173 30.382 8.47173C30.6901 8.47173 30.9378 8.52344 31.1253 8.62685C31.3148 8.7281 31.4613 8.84659 31.5647 8.98232C31.6703 9.11804 31.7522 9.23761 31.8103 9.34102H31.8685V6.88182H32.8347V13.5H31.8911V12.7277H31.8103C31.7522 12.8332 31.6682 12.9539 31.5583 13.0896C31.4506 13.2253 31.3019 13.3438 31.1123 13.4451C30.9227 13.5463 30.6772 13.5969 30.3755 13.5969ZM30.5888 12.7729C30.8667 12.7729 31.1016 12.6997 31.2933 12.5532C31.4872 12.4045 31.6337 12.1988 31.7328 11.9359C31.834 11.6731 31.8847 11.3672 31.8847 11.0182C31.8847 10.6735 31.8351 10.3719 31.736 10.1134C31.6369 9.85483 31.4915 9.6534 31.2998 9.50906C31.108 9.36471 30.871 9.29254 30.5888 9.29254C30.298 9.29254 30.0556 9.36795 29.8617 9.51875C29.6678 9.66956 29.5213 9.8753 29.4222 10.136C29.3253 10.3967 29.2768 10.6907 29.2768 11.0182C29.2768 11.35 29.3264 11.6483 29.4255 11.9133C29.5246 12.1783 29.6711 12.3884 29.865 12.5435C30.061 12.6964 30.3023 12.7729 30.5888 12.7729ZM35.6583 13.6099C35.3438 13.6099 35.0594 13.5517 34.8052 13.4354C34.551 13.3169 34.3495 13.1456 34.2009 12.9216C34.0544 12.6975 33.9811 12.4228 33.9811 12.0975C33.9811 11.8174 34.035 11.5869 34.1427 11.406C34.2504 11.225 34.3958 11.0817 34.579 10.9762C34.7621 10.8706 34.9667 10.7909 35.193 10.737C35.4192 10.6832 35.6497 10.6422 35.8845 10.6142C36.1818 10.5798 36.4231 10.5518 36.6084 10.5302C36.7936 10.5065 36.9283 10.4688 37.0123 10.4171C37.0963 10.3654 37.1383 10.2814 37.1383 10.1651V10.1424C37.1383 9.86022 37.0586 9.64155 36.8992 9.48643C36.7419 9.33132 36.5071 9.25376 36.1947 9.25376C35.8694 9.25376 35.6131 9.32594 35.4256 9.47028C35.2403 9.61246 35.1122 9.77081 35.0411 9.94531L34.133 9.73849C34.2407 9.43688 34.398 9.19344 34.6048 9.00817C34.8138 8.82074 35.054 8.68501 35.3254 8.60099C35.5969 8.51482 35.8823 8.47173 36.1818 8.47173C36.38 8.47173 36.5901 8.49543 36.812 8.54283C37.036 8.58807 37.245 8.67209 37.4389 8.79489C37.6349 8.91768 37.7954 9.09326 37.9204 9.32163C38.0453 9.54783 38.1078 9.8419 38.1078 10.2038V13.5H37.1642V12.8214H37.1254C37.0629 12.9463 36.9692 13.0691 36.8443 13.1898C36.7193 13.3104 36.5588 13.4106 36.3628 13.4903C36.1667 13.57 35.9319 13.6099 35.6583 13.6099ZM35.8683 12.8343C36.1355 12.8343 36.3638 12.7815 36.5534 12.676C36.7452 12.5704 36.8906 12.4325 36.9897 12.2623C37.0909 12.09 37.1416 11.9058 37.1416 11.7097V11.0699C37.1071 11.1044 37.0403 11.1367 36.9412 11.1668C36.8443 11.1948 36.7333 11.2196 36.6084 11.2412C36.4834 11.2605 36.3617 11.2789 36.2432 11.2961C36.1247 11.3112 36.0256 11.3241 35.9459 11.3349C35.7585 11.3586 35.5872 11.3984 35.4321 11.4544C35.2791 11.5105 35.1563 11.5912 35.0637 11.6968C34.9732 11.8002 34.928 11.9381 34.928 12.1104C34.928 12.3496 35.0163 12.5305 35.193 12.6533C35.3696 12.774 35.5947 12.8343 35.8683 12.8343ZM39.8278 15.3614C39.6834 15.3614 39.552 15.3495 39.4335 15.3258C39.315 15.3043 39.2267 15.2806 39.1685 15.2547L39.4012 14.463C39.5779 14.5104 39.7351 14.5309 39.873 14.5244C40.0109 14.5179 40.1326 14.4662 40.2382 14.3693C40.3459 14.2723 40.4407 14.114 40.5226 13.8942L40.6421 13.5646L38.826 8.53636H39.8601L41.1172 12.3884H41.1689L42.4259 8.53636H43.4633L41.4177 14.1625C41.3229 14.421 41.2023 14.6397 41.0558 14.8185C40.9093 14.9994 40.7348 15.1352 40.5323 15.2256C40.3297 15.3161 40.0949 15.3614 39.8278 15.3614ZM48.0908 9.74819L47.2151 9.9033C47.1784 9.79128 47.1203 9.68464 47.0406 9.58338C46.963 9.48213 46.8574 9.39918 46.7239 9.33455C46.5903 9.26992 46.4233 9.23761 46.223 9.23761C45.9494 9.23761 45.721 9.29901 45.5379 9.4218C45.3548 9.54245 45.2632 9.69864 45.2632 9.89038C45.2632 10.0563 45.3246 10.1898 45.4474 10.2911C45.5702 10.3923 45.7684 10.4753 46.042 10.5399L46.8305 10.7209C47.2872 10.8264 47.6276 10.9891 47.8517 11.2088C48.0757 11.4286 48.1878 11.714 48.1878 12.0652C48.1878 12.3625 48.1016 12.6275 47.9292 12.8602C47.759 13.0907 47.521 13.2716 47.2151 13.4031C46.9113 13.5345 46.5591 13.6002 46.1584 13.6002C45.6025 13.6002 45.149 13.4817 44.7979 13.2447C44.4467 13.0056 44.2313 12.6663 44.1516 12.2268L45.0855 12.0846C45.1437 12.328 45.2632 12.5122 45.4442 12.6372C45.6252 12.76 45.8611 12.8214 46.1519 12.8214C46.4686 12.8214 46.7217 12.7557 46.9113 12.6243C47.1009 12.4907 47.1957 12.328 47.1957 12.1363C47.1957 11.9812 47.1375 11.8508 47.0212 11.7453C46.907 11.6397 46.7314 11.56 46.4944 11.5061L45.6542 11.3219C45.191 11.2164 44.8485 11.0483 44.6266 10.8178C44.4069 10.5873 44.297 10.2954 44.297 9.94208C44.297 9.64909 44.3789 9.39272 44.5426 9.17298C44.7063 8.95323 44.9325 8.78196 45.2212 8.65916C45.5099 8.53421 45.8406 8.47173 46.2133 8.47173C46.7497 8.47173 47.172 8.58807 47.4801 8.82074C47.7881 9.05125 47.9917 9.3604 48.0908 9.74819Z" fill="#313233"/>
<path d="M54.4998 8.89933L56.8774 11.2768C56.9457 11.3452 57.0565 11.3452 57.1249 11.2768L59.5023 8.89933C59.6126 8.78908 59.5345 8.60059 59.3786 8.60059H54.6236C54.4677 8.60059 54.3896 8.78909 54.4998 8.89933Z" fill="#96979A"/>
</svg>
